<mxfile host="app.diagrams.net" modified="2022-05-16T07:15:21.221Z" agent="5.0 (Windows NT 10.0; Win64; x64) AppleWebKit/537.36 (KHTML, like Gecko) Chrome/97.0.4692.99 Safari/537.36" etag="W9m6RIv2ubTiP16-bpR8" version="16.5.6" type="github">
  <diagram id="529PEyi6dyBxdSGrirQ1" name="Page-1">
    <mxGraphModel dx="1298" dy="654" grid="1" gridSize="10" guides="1" tooltips="1" connect="1" arrows="1" fold="1" page="1" pageScale="1" pageWidth="827" pageHeight="1169" math="1" shadow="0">
      <root>
        <mxCell id="0" />
        <mxCell id="1" parent="0" />
        <mxCell id="NdExQj62E6gCZREfSvql-43" style="edgeStyle=orthogonalEdgeStyle;curved=0;rounded=1;sketch=1;orthogonalLoop=1;jettySize=auto;html=1;entryX=0.5;entryY=0;entryDx=0;entryDy=0;fontColor=#1A1A1A;strokeColor=#182E3E;" edge="1" parent="1" source="NdExQj62E6gCZREfSvql-44" target="NdExQj62E6gCZREfSvql-46">
          <mxGeometry relative="1" as="geometry" />
        </mxCell>
        <mxCell id="NdExQj62E6gCZREfSvql-44" value="开始" style="rounded=1;whiteSpace=wrap;html=1;fontSize=12;glass=0;strokeWidth=1;shadow=0;sketch=1;fillColor=#F5AB50;strokeColor=#909090;fontColor=#1A1A1A;" vertex="1" parent="1">
          <mxGeometry x="175" y="80" width="90" height="40" as="geometry" />
        </mxCell>
        <mxCell id="NdExQj62E6gCZREfSvql-45" style="edgeStyle=orthogonalEdgeStyle;curved=0;rounded=1;sketch=1;orthogonalLoop=1;jettySize=auto;html=1;entryX=0.5;entryY=0;entryDx=0;entryDy=0;fontColor=#1A1A1A;strokeColor=#182E3E;" edge="1" parent="1" source="NdExQj62E6gCZREfSvql-46" target="NdExQj62E6gCZREfSvql-48">
          <mxGeometry relative="1" as="geometry" />
        </mxCell>
        <mxCell id="NdExQj62E6gCZREfSvql-46" value="$$D,F,L$$" style="shape=parallelogram;perimeter=parallelogramPerimeter;whiteSpace=wrap;html=1;fixedSize=1;rounded=0;sketch=1;fontColor=#1A1A1A;strokeColor=#909090;fillColor=#F5AB50;" vertex="1" parent="1">
          <mxGeometry x="160" y="150" width="120" height="40" as="geometry" />
        </mxCell>
        <mxCell id="NdExQj62E6gCZREfSvql-47" style="edgeStyle=orthogonalEdgeStyle;curved=0;rounded=1;sketch=1;orthogonalLoop=1;jettySize=auto;html=1;entryX=0.5;entryY=0;entryDx=0;entryDy=0;fontColor=#1A1A1A;strokeColor=#182E3E;" edge="1" parent="1" source="NdExQj62E6gCZREfSvql-48" target="NdExQj62E6gCZREfSvql-51">
          <mxGeometry relative="1" as="geometry" />
        </mxCell>
        <mxCell id="NdExQj62E6gCZREfSvql-48" value="$$CORE=\emptyset,S=\emptyset,LEFT=F-CORE$$" style="shape=hexagon;perimeter=hexagonPerimeter2;whiteSpace=wrap;html=1;fixedSize=1;rounded=0;sketch=1;fontColor=#1A1A1A;strokeColor=#909090;fillColor=#F5AB50;" vertex="1" parent="1">
          <mxGeometry x="80" y="230" width="280" height="80" as="geometry" />
        </mxCell>
        <mxCell id="NdExQj62E6gCZREfSvql-49" value="" style="edgeStyle=orthogonalEdgeStyle;curved=0;rounded=1;sketch=1;orthogonalLoop=1;jettySize=auto;html=1;fontColor=#1A1A1A;strokeColor=#182E3E;" edge="1" parent="1" source="NdExQj62E6gCZREfSvql-51" target="NdExQj62E6gCZREfSvql-55">
          <mxGeometry relative="1" as="geometry" />
        </mxCell>
        <mxCell id="NdExQj62E6gCZREfSvql-50" value="是" style="edgeLabel;html=1;align=center;verticalAlign=middle;resizable=0;points=[];fontColor=#1A1A1A;" vertex="1" connectable="0" parent="NdExQj62E6gCZREfSvql-49">
          <mxGeometry x="0.1" y="1" relative="1" as="geometry">
            <mxPoint as="offset" />
          </mxGeometry>
        </mxCell>
        <mxCell id="NdExQj62E6gCZREfSvql-51" value="计算&lt;br&gt;$$\rho \left ( f_{k} \right ) ,\forall f_k\in F$$" style="shape=process;whiteSpace=wrap;html=1;backgroundOutline=1;rounded=0;sketch=1;fontColor=#1A1A1A;strokeColor=#909090;fillColor=#F5AB50;" vertex="1" parent="1">
          <mxGeometry x="145" y="350" width="150" height="60" as="geometry" />
        </mxCell>
        <mxCell id="NdExQj62E6gCZREfSvql-52" style="edgeStyle=orthogonalEdgeStyle;curved=0;rounded=1;sketch=1;orthogonalLoop=1;jettySize=auto;html=1;entryX=0;entryY=0.5;entryDx=0;entryDy=0;fontColor=#1A1A1A;strokeColor=#182E3E;exitX=0;exitY=0.5;exitDx=0;exitDy=0;" edge="1" parent="1" source="NdExQj62E6gCZREfSvql-55" target="NdExQj62E6gCZREfSvql-51">
          <mxGeometry relative="1" as="geometry">
            <Array as="points">
              <mxPoint x="80" y="490" />
              <mxPoint x="80" y="380" />
            </Array>
          </mxGeometry>
        </mxCell>
        <mxCell id="NdExQj62E6gCZREfSvql-53" value="否" style="edgeLabel;html=1;align=center;verticalAlign=middle;resizable=0;points=[];fontColor=#1A1A1A;" vertex="1" connectable="0" parent="NdExQj62E6gCZREfSvql-52">
          <mxGeometry x="0.1318" y="-1" relative="1" as="geometry">
            <mxPoint as="offset" />
          </mxGeometry>
        </mxCell>
        <mxCell id="NdExQj62E6gCZREfSvql-54" value="" style="edgeStyle=orthogonalEdgeStyle;curved=0;rounded=1;sketch=1;orthogonalLoop=1;jettySize=auto;html=1;fontColor=#1A1A1A;strokeColor=#182E3E;" edge="1" parent="1" source="NdExQj62E6gCZREfSvql-55" target="NdExQj62E6gCZREfSvql-57">
          <mxGeometry relative="1" as="geometry" />
        </mxCell>
        <mxCell id="NdExQj62E6gCZREfSvql-55" value="$$\rho \left ( f_{k} \right )&amp;gt;0$$" style="rhombus;whiteSpace=wrap;html=1;rounded=0;fontColor=#1A1A1A;strokeColor=#909090;fillColor=#F5AB50;sketch=1;" vertex="1" parent="1">
          <mxGeometry x="165" y="450" width="110" height="80" as="geometry" />
        </mxCell>
        <mxCell id="NdExQj62E6gCZREfSvql-56" value="" style="edgeStyle=orthogonalEdgeStyle;curved=0;rounded=1;sketch=1;orthogonalLoop=1;jettySize=auto;html=1;fontColor=#1A1A1A;strokeColor=#182E3E;" edge="1" parent="1" source="NdExQj62E6gCZREfSvql-57" target="NdExQj62E6gCZREfSvql-62">
          <mxGeometry relative="1" as="geometry" />
        </mxCell>
        <mxCell id="NdExQj62E6gCZREfSvql-57" value="$$CORE=CORE\cup \left \{ f_k \right \}&amp;nbsp;$$" style="whiteSpace=wrap;html=1;rounded=0;fontColor=#1A1A1A;strokeColor=#909090;fillColor=#F5AB50;sketch=1;" vertex="1" parent="1">
          <mxGeometry x="135" y="570" width="170" height="60" as="geometry" />
        </mxCell>
        <mxCell id="NdExQj62E6gCZREfSvql-58" style="edgeStyle=orthogonalEdgeStyle;curved=0;rounded=1;sketch=1;orthogonalLoop=1;jettySize=auto;html=1;entryX=1;entryY=0.5;entryDx=0;entryDy=0;fontColor=#1A1A1A;strokeColor=#182E3E;exitX=1;exitY=0.5;exitDx=0;exitDy=0;" edge="1" parent="1" source="NdExQj62E6gCZREfSvql-62" target="NdExQj62E6gCZREfSvql-51">
          <mxGeometry relative="1" as="geometry">
            <Array as="points">
              <mxPoint x="350" y="710" />
              <mxPoint x="350" y="380" />
            </Array>
          </mxGeometry>
        </mxCell>
        <mxCell id="NdExQj62E6gCZREfSvql-59" value="否" style="edgeLabel;html=1;align=center;verticalAlign=middle;resizable=0;points=[];fontColor=#1A1A1A;" vertex="1" connectable="0" parent="NdExQj62E6gCZREfSvql-58">
          <mxGeometry x="0.1556" y="-1" relative="1" as="geometry">
            <mxPoint as="offset" />
          </mxGeometry>
        </mxCell>
        <mxCell id="NdExQj62E6gCZREfSvql-60" value="" style="edgeStyle=orthogonalEdgeStyle;curved=0;rounded=1;sketch=1;orthogonalLoop=1;jettySize=auto;html=1;fontColor=#1A1A1A;strokeColor=#182E3E;" edge="1" parent="1" source="NdExQj62E6gCZREfSvql-62" target="NdExQj62E6gCZREfSvql-64">
          <mxGeometry relative="1" as="geometry" />
        </mxCell>
        <mxCell id="NdExQj62E6gCZREfSvql-61" value="是" style="edgeLabel;html=1;align=center;verticalAlign=middle;resizable=0;points=[];fontColor=#1A1A1A;" vertex="1" connectable="0" parent="NdExQj62E6gCZREfSvql-60">
          <mxGeometry x="-0.175" relative="1" as="geometry">
            <mxPoint as="offset" />
          </mxGeometry>
        </mxCell>
        <mxCell id="NdExQj62E6gCZREfSvql-62" value="是否最后一个" style="rhombus;whiteSpace=wrap;html=1;rounded=0;fontColor=#1A1A1A;strokeColor=#909090;fillColor=#F5AB50;sketch=1;" vertex="1" parent="1">
          <mxGeometry x="155" y="670" width="130" height="80" as="geometry" />
        </mxCell>
        <mxCell id="NdExQj62E6gCZREfSvql-63" value="" style="edgeStyle=orthogonalEdgeStyle;curved=0;rounded=1;sketch=1;orthogonalLoop=1;jettySize=auto;html=1;fontColor=#1A1A1A;strokeColor=#182E3E;entryX=0;entryY=0.5;entryDx=0;entryDy=0;" edge="1" parent="1" source="NdExQj62E6gCZREfSvql-64" target="NdExQj62E6gCZREfSvql-66">
          <mxGeometry relative="1" as="geometry">
            <Array as="points">
              <mxPoint x="420" y="820" />
              <mxPoint x="420" y="110" />
            </Array>
          </mxGeometry>
        </mxCell>
        <mxCell id="NdExQj62E6gCZREfSvql-64" value="$$S=CORE,LEFT=F-CORE$$" style="whiteSpace=wrap;html=1;rounded=0;fontColor=#1A1A1A;strokeColor=#909090;fillColor=#F5AB50;sketch=1;" vertex="1" parent="1">
          <mxGeometry x="105" y="790" width="230" height="60" as="geometry" />
        </mxCell>
        <mxCell id="NdExQj62E6gCZREfSvql-65" value="" style="edgeStyle=orthogonalEdgeStyle;curved=0;rounded=1;sketch=1;orthogonalLoop=1;jettySize=auto;html=1;fontColor=#1A1A1A;strokeColor=#182E3E;" edge="1" parent="1" source="NdExQj62E6gCZREfSvql-66" target="NdExQj62E6gCZREfSvql-71">
          <mxGeometry relative="1" as="geometry" />
        </mxCell>
        <mxCell id="NdExQj62E6gCZREfSvql-66" value="$$R\in \left [ 0,card\left ( LEFT \right ) \right ]&amp;nbsp; $$" style="whiteSpace=wrap;html=1;rounded=0;fontColor=#1A1A1A;strokeColor=#909090;fillColor=#F5AB50;sketch=1;" vertex="1" parent="1">
          <mxGeometry x="560" y="80" width="170" height="60" as="geometry" />
        </mxCell>
        <mxCell id="NdExQj62E6gCZREfSvql-67" style="edgeStyle=orthogonalEdgeStyle;curved=0;rounded=1;sketch=1;orthogonalLoop=1;jettySize=auto;html=1;entryX=0;entryY=0.5;entryDx=0;entryDy=0;fontColor=#1A1A1A;strokeColor=#182E3E;exitX=1;exitY=0.5;exitDx=0;exitDy=0;" edge="1" parent="1" source="NdExQj62E6gCZREfSvql-71" target="NdExQj62E6gCZREfSvql-73">
          <mxGeometry relative="1" as="geometry">
            <mxPoint x="1167.5" y="160" as="sourcePoint" />
          </mxGeometry>
        </mxCell>
        <mxCell id="NdExQj62E6gCZREfSvql-68" value="是" style="edgeLabel;html=1;align=center;verticalAlign=middle;resizable=0;points=[];fontColor=#1A1A1A;" vertex="1" connectable="0" parent="NdExQj62E6gCZREfSvql-67">
          <mxGeometry x="-0.125" y="2" relative="1" as="geometry">
            <mxPoint as="offset" />
          </mxGeometry>
        </mxCell>
        <mxCell id="NdExQj62E6gCZREfSvql-69" value="" style="edgeStyle=orthogonalEdgeStyle;curved=0;rounded=1;sketch=1;orthogonalLoop=1;jettySize=auto;html=1;fontColor=#1A1A1A;strokeColor=#182E3E;exitX=0.5;exitY=1;exitDx=0;exitDy=0;" edge="1" parent="1" source="NdExQj62E6gCZREfSvql-71" target="NdExQj62E6gCZREfSvql-76">
          <mxGeometry relative="1" as="geometry" />
        </mxCell>
        <mxCell id="NdExQj62E6gCZREfSvql-70" value="否" style="edgeLabel;html=1;align=center;verticalAlign=middle;resizable=0;points=[];fontColor=#1A1A1A;" vertex="1" connectable="0" parent="NdExQj62E6gCZREfSvql-69">
          <mxGeometry x="-0.0667" relative="1" as="geometry">
            <mxPoint x="1" y="1" as="offset" />
          </mxGeometry>
        </mxCell>
        <mxCell id="NdExQj62E6gCZREfSvql-71" value="$$R=0$$" style="rhombus;whiteSpace=wrap;html=1;rounded=0;fontColor=#1A1A1A;strokeColor=#909090;fillColor=#F5AB50;sketch=1;" vertex="1" parent="1">
          <mxGeometry x="582.5" y="190" width="125" height="80" as="geometry" />
        </mxCell>
        <mxCell id="NdExQj62E6gCZREfSvql-72" style="edgeStyle=orthogonalEdgeStyle;curved=0;rounded=1;sketch=1;orthogonalLoop=1;jettySize=auto;html=1;entryX=0.5;entryY=0;entryDx=0;entryDy=0;fontColor=#1A1A1A;strokeColor=#182E3E;" edge="1" parent="1" source="NdExQj62E6gCZREfSvql-73" target="NdExQj62E6gCZREfSvql-74">
          <mxGeometry relative="1" as="geometry" />
        </mxCell>
        <mxCell id="NdExQj62E6gCZREfSvql-73" value="输出&lt;br&gt;$$S$$" style="shape=parallelogram;perimeter=parallelogramPerimeter;whiteSpace=wrap;html=1;fixedSize=1;rounded=0;sketch=1;fontColor=#1A1A1A;strokeColor=#909090;fillColor=#F5AB50;" vertex="1" parent="1">
          <mxGeometry x="827" y="190" width="135" height="80" as="geometry" />
        </mxCell>
        <mxCell id="NdExQj62E6gCZREfSvql-74" value="结束" style="rounded=1;whiteSpace=wrap;html=1;fontSize=12;glass=0;strokeWidth=1;shadow=0;sketch=1;fillColor=#F5AB50;strokeColor=#909090;fontColor=#1A1A1A;" vertex="1" parent="1">
          <mxGeometry x="849.5" y="330" width="90" height="40" as="geometry" />
        </mxCell>
        <mxCell id="NdExQj62E6gCZREfSvql-75" style="edgeStyle=orthogonalEdgeStyle;curved=0;rounded=1;sketch=1;orthogonalLoop=1;jettySize=auto;html=1;fontColor=#1A1A1A;strokeColor=#182E3E;" edge="1" parent="1" source="NdExQj62E6gCZREfSvql-76" target="NdExQj62E6gCZREfSvql-78">
          <mxGeometry relative="1" as="geometry" />
        </mxCell>
        <mxCell id="NdExQj62E6gCZREfSvql-76" value="$$S=S\cup f_k,\forall f_k\in LEFT&lt;br&gt;$$" style="whiteSpace=wrap;html=1;rounded=0;fontColor=#1A1A1A;strokeColor=#909090;fillColor=#F5AB50;sketch=1;" vertex="1" parent="1">
          <mxGeometry x="557.5" y="330" width="175" height="60" as="geometry" />
        </mxCell>
        <mxCell id="NdExQj62E6gCZREfSvql-77" style="edgeStyle=orthogonalEdgeStyle;curved=0;rounded=1;sketch=1;orthogonalLoop=1;jettySize=auto;html=1;fontColor=#1A1A1A;strokeColor=#182E3E;" edge="1" parent="1" source="NdExQj62E6gCZREfSvql-78" target="NdExQj62E6gCZREfSvql-80">
          <mxGeometry relative="1" as="geometry" />
        </mxCell>
        <mxCell id="NdExQj62E6gCZREfSvql-78" value="计算&lt;br&gt;$$J(S)$$" style="shape=process;whiteSpace=wrap;html=1;backgroundOutline=1;rounded=0;sketch=1;fontColor=#1A1A1A;strokeColor=#909090;fillColor=#F5AB50;" vertex="1" parent="1">
          <mxGeometry x="580" y="440" width="130" height="60" as="geometry" />
        </mxCell>
        <mxCell id="NdExQj62E6gCZREfSvql-79" value="" style="edgeStyle=orthogonalEdgeStyle;curved=0;rounded=1;sketch=1;orthogonalLoop=1;jettySize=auto;html=1;fontColor=#1A1A1A;strokeColor=#182E3E;" edge="1" parent="1" source="NdExQj62E6gCZREfSvql-80" target="NdExQj62E6gCZREfSvql-82">
          <mxGeometry relative="1" as="geometry" />
        </mxCell>
        <mxCell id="NdExQj62E6gCZREfSvql-80" value="取基于J(S)对LEFT&lt;br&gt;特征排序结果前R个元素&lt;br&gt;$$LEFT_R=\left \{ l_1,l_2,...l_R \right \}&amp;nbsp;$$" style="shape=process;whiteSpace=wrap;html=1;backgroundOutline=1;rounded=0;sketch=1;fontColor=#1A1A1A;strokeColor=#909090;fillColor=#F5AB50;" vertex="1" parent="1">
          <mxGeometry x="535" y="550" width="220" height="100" as="geometry" />
        </mxCell>
        <mxCell id="NdExQj62E6gCZREfSvql-81" value="" style="edgeStyle=orthogonalEdgeStyle;curved=0;rounded=1;sketch=1;orthogonalLoop=1;jettySize=auto;html=1;fontColor=#1A1A1A;strokeColor=#182E3E;" edge="1" parent="1" source="NdExQj62E6gCZREfSvql-82" target="NdExQj62E6gCZREfSvql-84">
          <mxGeometry relative="1" as="geometry" />
        </mxCell>
        <mxCell id="NdExQj62E6gCZREfSvql-82" value="$$f_r\in LEFT_R$$" style="whiteSpace=wrap;html=1;rounded=0;fontColor=#1A1A1A;strokeColor=#909090;fillColor=#F5AB50;sketch=1;" vertex="1" parent="1">
          <mxGeometry x="585" y="700" width="120" height="60" as="geometry" />
        </mxCell>
        <mxCell id="NdExQj62E6gCZREfSvql-83" style="edgeStyle=orthogonalEdgeStyle;curved=0;rounded=1;sketch=1;orthogonalLoop=1;jettySize=auto;html=1;entryX=0;entryY=0.5;entryDx=0;entryDy=0;fontColor=#1A1A1A;strokeColor=#182E3E;exitX=0;exitY=0.5;exitDx=0;exitDy=0;" edge="1" parent="1" source="NdExQj62E6gCZREfSvql-84" target="NdExQj62E6gCZREfSvql-71">
          <mxGeometry relative="1" as="geometry">
            <Array as="points">
              <mxPoint x="450" y="840" />
              <mxPoint x="450" y="230" />
            </Array>
          </mxGeometry>
        </mxCell>
        <mxCell id="NdExQj62E6gCZREfSvql-84" value="$$R=R-1,S=S\cup \left \{ f_r \right \} ,LEFT=LEFT-\left \{ f_r \right \}&amp;nbsp;$$" style="whiteSpace=wrap;html=1;rounded=0;fontColor=#1A1A1A;strokeColor=#909090;fillColor=#F5AB50;sketch=1;" vertex="1" parent="1">
          <mxGeometry x="480" y="810" width="330" height="60" as="geometry" />
        </mxCell>
      </root>
    </mxGraphModel>
  </diagram>
</mxfile>
